<?xml version="1.0" encoding="UTF-8" standalone="no"?>
<!-- Created with Inkscape (http://www.inkscape.org/) -->

<svg
   version="1.1"
   id="svg55"
   width="750"
   height="1000"
   viewBox="0 0 750 1000"
   sodipodi:docname="cowboybebop.svg"
   inkscape:version="1.1 (c4e8f9ed74, 2021-05-24)"
   xmlns:inkscape="http://www.inkscape.org/namespaces/inkscape"
   xmlns:sodipodi="http://sodipodi.sourceforge.net/DTD/sodipodi-0.dtd"
   xmlns="http://www.w3.org/2000/svg"
   xmlns:svg="http://www.w3.org/2000/svg">
  <defs
     id="defs59" />
  <sodipodi:namedview
     id="namedview57"
     pagecolor="#505050"
     bordercolor="#eeeeee"
     borderopacity="1"
     inkscape:pageshadow="0"
     inkscape:pageopacity="0"
     inkscape:pagecheckerboard="0"
     showgrid="false"
     inkscape:zoom="0.57"
     inkscape:cx="642.10526"
     inkscape:cy="540.35088"
     inkscape:window-width="1440"
     inkscape:window-height="900"
     inkscape:window-x="1366"
     inkscape:window-y="0"
     inkscape:window-maximized="0"
     inkscape:current-layer="g61" />
  <g
     inkscape:groupmode="layer"
     inkscape:label="Image"
     id="g61">
    <g
       id="g839"
       transform="translate(1.2335663e-5)"
       style="fill:#646b8c;fill-opacity:1;stroke:#646b8c;stroke-opacity:1;stroke-width:1;stroke-miterlimit:4;stroke-dasharray:none">
      <path
         style="fill:#646b8c;fill-opacity:1;stroke:#646b8c;stroke-opacity:1;stroke-width:1;stroke-miterlimit:4;stroke-dasharray:none"
         d="M 60,754.5 V 559 h 2.5 2.5 l 0.01542,162.25 0.01542,162.25 3.608607,-6.5 c 16.350938,-29.45211 26.771718,-46.59639 56.589123,-93.10048 10.59929,-16.53095 24.04756,-36.43786 29.88505,-44.23758 12.84125,-17.15774 31.49615,-38.24666 47.15068,-53.30272 6.67422,-6.41907 12.52314,-12.98832 13.80041,-15.5 3.74629,-7.36689 9.87491,-15.79574 19.78493,-27.21072 l 9.48854,-10.9295 -1.08421,-3.6095 c -0.59631,-1.98523 -3.5974,-10.80188 -6.66909,-19.59257 C 234.5132,600.72624 232,592.28874 232,590.76693 c 0,-3.20795 -0.45853,-3.30894 -5.48596,-1.20835 -2.05162,0.85722 -3.95566,1.33313 -4.23122,1.05758 -1.2441,-1.24411 7.00913,-10.09938 15.65699,-16.7991 l 3.43982,-2.66491 -9.43982,0.17392 c -10.18135,0.18759 -12.47708,-0.43228 -21.93981,-5.92403 -7.53695,-4.37411 -25.16856,-11.8218 -38.98833,-16.46889 -6.31858,-2.12471 -11.62568,-4.27517 -11.79355,-4.77879 -0.40262,-1.20785 2.63188,-1.89839 12.03188,-2.73799 4.2625,-0.38073 7.75,-1.02557 7.75,-1.43298 0,-0.40741 -1.31747,-1.28646 -2.92771,-1.95344 -3.29845,-1.36627 -6.71546,-4.72011 -5.77113,-5.66444 0.34222,-0.34223 2.63873,-0.11447 5.10335,0.50613 9.91964,2.49779 20.41029,0.4638 26.34549,-5.10802 2.93322,-2.75363 2.84649,-3.99693 -0.82056,-11.76362 -6.49136,-13.74847 -13.15523,-16.81021 -24.48905,-11.25158 -5.4907,2.69289 -5.63258,2.70923 -7.02216,0.80887 -2.03199,-2.77892 -1.78367,-12.57407 0.46907,-18.5028 1.03801,-2.73183 3.28385,-7.23666 4.99075,-10.01073 1.70691,-2.77407 2.75132,-5.04376 2.32091,-5.04376 -1.46042,0 -8.97966,8.47384 -12.58595,14.1838 -1.97438,3.1261 -3.98486,5.92798 -4.46775,6.22642 -1.61524,0.99828 -4.12848,-3.00864 -4.75525,-7.58144 -1.21759,-8.88328 4.226,-21.63404 14.31175,-33.52304 2.91403,-3.43504 5.29824,-6.43297 5.29824,-6.66209 0,-0.22911 -2.1375,-0.72985 -4.75,-1.11275 -9.71211,-1.42346 -19.25,-7.47717 -19.25,-12.21799 0,-2.74357 0.40909,-2.77991 8.29349,-0.73686 6.88499,1.78408 11.33265,1.3021 16.93895,-1.83563 8.92837,-4.99701 14.37411,-19.90822 18.18834,-49.80227 0.81135,-6.35902 2.20593,-13.71419 3.09905,-16.34482 0.89313,-2.63063 1.40621,-5.00063 1.14018,-5.26666 -1.39225,-1.39224 -6.98217,11.44448 -9.43794,21.67333 -0.6015,2.50539 -1.46242,3.59075 -3.02956,3.81934 -2.96528,0.43253 -4.19735,-3.06624 -4.90807,-13.93767 l -0.56342,-8.61833 -2.53881,1.31715 c -5.00548,2.59688 -5.30001,0.12991 -1.65763,-13.8842 6.40976,-24.66168 12.47449,-36.63794 24.14984,-47.68964 4.65216,-4.40366 8.01588,-8.00665 7.47493,-8.00665 -3.81458,0 -15.38879,6.85054 -23.64045,13.9923 -4.62441,4.0024 -7.5089,4.38646 -7.5089,0.9998 0,-5.29886 21.30848,-27.98404 34.10927,-36.31301 C 219.37238,265.3026 230.47533,260 233.46987,260 c 2.50506,0 1.8163,-1.63238 -4.01682,-9.51993 C 218.04955,235.06024 212,220.32192 212,207.95976 212,200.29886 213.22956,196 215.42072,196 c 0.80862,0 3.07305,3.0375 5.03205,6.75 3.39723,6.43808 16.26774,22.86283 17.19153,21.93903 0.24175,-0.24175 -0.0259,-3.30818 -0.59482,-6.81429 -1.40985,-8.6888 -1.28535,-15.08587 0.45492,-23.37474 C 240.84037,178.61084 255,158.39678 255,169.52356 c 0,3.73356 3.63896,21.60568 5.15629,25.32425 l 1.35923,3.3311 7.87148,-11.67051 c 4.5469,-6.7414 12.56841,-16.62737 18.99224,-23.40669 6.11642,-6.45489 11.9337,-13.16841 12.9273,-14.91894 L 303.11307,145 H 184.05654 65 v 29 29 H 62.5 60 V 171.50383 140.00766 L 186.7005,139.75383 313.401,139.5 l 3.5495,-6.2325 c 9.3794,-16.46912 21.55551,-25.44691 46.2995,-34.137925 4.8125,-1.690331 8.75,-2.693649 8.75,-2.229595 0,0.464054 -2.925,4.76707 -6.5,9.56226 -3.575,4.79518 -6.5,9.13481 -6.5,9.64362 0,0.5088 2.85026,-0.875 6.33392,-3.07513 9.97647,-6.30072 24.40034,-12.73355 35.22385,-15.709328 8.43026,-2.317786 11.94443,-2.740167 23.10803,-2.777442 11.80204,-0.03941 15.63998,0.483596 14.18989,1.93368 -0.2627,0.262702 -4.48344,1.638478 -9.37943,3.057279 -11.2917,3.272201 -20.62676,8.172481 -27.87434,14.632141 -6.11687,5.45188 -6.75175,7.29252 -1.40452,4.07198 13.46309,-8.10857 38.58665,-14.17649 75.37282,-18.20427 23.94564,-2.621854 28.22586,-3.828501 34.54399,-9.738371 8.85567,-8.283442 14.67687,-24.441798 12.70796,-35.274494 -0.52255,-2.875024 -0.71572,-5.461691 -0.42926,-5.748149 2.29922,-2.299223 8.72171,8.255766 13.61743,22.379475 l 3.17279,9.15323 6.65844,-1.929957 c 11.89998,-3.449229 15.53037,-4.08702 23.81365,-4.183612 C 576.48728,74.601563 580,75.676415 580,78.164268 c 0,0.505659 -2.87216,2.208029 -6.38257,3.783046 -3.51042,1.575017 -6.73424,3.432668 -7.16405,4.128115 -0.58148,0.940862 -0.29164,1.051072 1.13258,0.43066 16.91089,-7.366657 36.71209,-8.733835 50.69931,-3.500544 7.74637,2.898287 7.54897,4.660685 -0.99385,8.873343 -4.84786,2.390589 -6.30403,3.531215 -5.25,4.112376 C 614.97237,97.607318 636.77109,103 640.37267,103 c 8.45046,0 16.90006,-7.968265 16.90006,-15.937345 0,-2.159759 -0.9696,-5.787046 -2.15466,-8.060637 -1.18506,-2.27359 -1.89487,-4.55415 -1.57735,-5.067909 1.20807,-1.954688 5.25662,-0.799438 9.28633,2.649847 5.19792,4.449229 8.53504,10.070116 10.76244,18.127761 l 1.71712,6.211713 4.5967,0.55461 c 15.15134,1.82807 33.22373,8.0835 34.73548,12.02304 0.8205,2.13819 0.51052,2.33273 -5.54781,3.48167 -7.82125,1.48327 -13.4256,4.31555 -19.18687,9.69652 l -5.16142,4.82073 6.68549,0.58462 c 4.86191,0.42515 7.24464,1.14376 8.73537,2.63448 l 2.04986,2.04987 -5.94026,3.16613 c -8.68346,4.62823 -13.22862,8.77347 -15.89238,14.49404 -2.57144,5.52229 -2.97587,10.88729 -1.28092,16.99206 1.43329,5.16232 5.88342,9.5788 9.65178,9.5788 4.49391,0 11.27045,-5.17635 17.28024,-13.19976 L 711.5,160.5 l 0.31555,7 c 0.38271,8.48965 -1.8663,17.61163 -5.91683,23.99865 -2.60263,4.10393 -2.89872,5.42473 -2.89872,12.93074 0,10.31609 -2.48813,18.92138 -7.88541,27.27202 -2.15321,3.33144 -4.40335,6.35902 -5.0003,6.72796 -0.7218,0.44609 -0.88704,3.58504 -0.4933,9.37071 1.73558,25.50287 -12.45655,46.31061 -37.91877,55.5945 -8.50709,3.10181 -9.56126,4.03521 -2.85573,2.52858 8.44792,-1.89812 21.30539,-9.46859 34.48626,-20.30549 6.97963,-5.73842 9.31574,-6.69727 10.26842,-4.21462 1.04797,2.73098 -6.65915,15.49363 -14.31733,23.70887 l -4.2992,4.61191 0.25768,61.59274 0.25768,61.59274 9.44911,-4.49039 c 5.19701,-2.46972 11.37821,-4.97615 13.73599,-5.56985 2.35779,-0.59369 6.42925,-2.60261 9.04769,-4.46426 5.10068,-3.62644 9.21229,-4.29687 11.61521,-1.89395 1.81958,1.81958 4.00318,8.1319 3.24014,9.36653 -0.30474,0.49307 -3.14923,1.92719 -6.3211,3.18694 -3.17187,1.25974 -8.91704,3.88973 -12.76704,5.84441 -3.85,1.95469 -11.725,5.64716 -17.5,8.20549 l -10.5,4.65151 -0.25196,251.12713 L 674.99608,950 H 367.49804 60 Z m 609.75199,-56.25 c 0.1386,-135.9875 -0.0864,-247.25705 -0.5,-247.26567 -2.24688,-0.0468 -24.17235,10.44685 -23.14907,11.07928 1.28546,0.79446 -0.78963,10.85748 -3.65117,17.70611 -0.79846,1.91099 -1.45175,4.67612 -1.45175,6.14474 0,4.12925 4.5996,26.82566 6.90769,34.08554 3.92771,12.35424 2.53264,17.64668 -7.64434,29 l -4.03374,4.5 -28.86481,0.66328 c -15.87564,0.3648 -31.80638,0.92153 -35.40165,1.23717 -5.49262,0.48222 -24.51135,6.22174 -41.60684,12.55623 -2.79609,1.03605 -3.32858,1.90092 -4.81587,7.82181 -2.03238,8.09098 -5.22087,15.7114 -7.29362,17.43163 -1.12978,0.93764 -1.00481,0.22131 0.47427,-2.71851 2.42626,-4.82244 3.77209,-9.09344 5.30099,-16.82281 l 1.15343,-5.83119 6.16224,-2.74907 c 10.95721,-4.88818 31.98764,-11.99935 38.66225,-13.07316 3.575,-0.57514 19.325,-1.32003 35,-1.6553 l 28.5,-0.60958 5.10796,-5.31604 c 2.80938,-2.92381 5.87857,-6.93997 6.82042,-8.92478 1.85083,-3.90032 1.8044,-4.31012 -2.21043,-19.50968 -1.08958,-4.125 -2.78973,-13.01874 -3.77811,-19.76386 -1.73388,-11.83281 -1.73322,-12.39519 0.0186,-16 1.72066,-3.5406 5.72596,-15.52019 5.25989,-15.73196 -0.1201,-0.0546 -1.45587,-0.63069 -2.96837,-1.28026 -1.5125,-0.64957 -2.75,-1.70112 -2.75,-2.33678 0,-0.63566 2.025,-5.43056 4.5,-10.65533 2.475,-5.22478 4.5,-10.01569 4.5,-10.64646 0,-0.63078 -1.24274,-1.61596 -2.76163,-2.18928 -3.22189,-1.21612 -5.443,-7.10909 -7.38317,-19.58874 -1.18514,-7.62313 -1.17335,-7.70979 2.10645,-15.48668 C 644.06333,392.59498 648,381.18083 648,379.0139 c 0,-1.12538 -1.55979,-2.03556 -4.99882,-2.91696 -2.74935,-0.70464 -9.16185,-3.38853 -14.25,-5.96421 C 619.24721,365.32172 578.88091,338.41008 575.75,334.7976 574.25796,333.07607 574,330.65736 574,318.38922 574,310.47515 573.6051,304 573.12244,304 c -0.48265,0 -1.43775,0.675 -2.12244,1.5 -2.0165,2.42973 -3,1.74128 -3,-2.1 0,-4.33453 -3.84132,-8.45886 -11.77605,-12.64363 -3.06211,-1.61496 -6.47051,-4.49461 -8.28531,-7 -2.83106,-3.90837 -3.62323,-4.3561 -9.68903,-5.47618 -3.63324,-0.67089 -9.10766,-2.47089 -12.16537,-4 -3.05772,-1.5291 -5.86012,-2.91605 -6.22756,-3.08209 -0.67976,-0.30718 0.35999,3.74357 4.78371,18.63683 l 2.47571,8.33494 8.32152,-0.69318 c 9.80266,-0.81656 14.99558,-0.10773 19.56392,2.67044 4.16896,2.5353 3.71365,2.86789 -9.50154,6.94069 l -10,3.08191 -10.5,10.56218 c -5.775,5.8092 -13.425,12.90942 -17,15.77827 -13.42143,10.77037 -20.86232,20.9118 -23.8382,32.48982 -1.06893,4.15883 -3.13679,16.25422 -3.15425,18.45 -0.017,2.13591 -1.77986,-1.19995 -2.96512,-5.61083 -1.29203,-4.80823 -2.60779,-5.76553 -8.04243,-5.85133 -1.375,-0.0217 -5.55831,-1.08162 -9.29624,-2.35536 -3.73794,-1.27373 -6.5769,-1.82462 -6.30882,-1.22418 6.01688,13.47608 8.95106,24.99388 8.42788,33.08271 -0.54221,8.383 -2.78042,7.03421 -6.79806,-4.09666 -1.91138,-5.29549 -4.08562,-10.36305 -4.83163,-11.26125 -1.22027,-1.4692 -1.28968,-1.43238 -0.69161,0.3669 1.9708,5.92908 2.18264,12.1043 0.64854,18.9053 -2.12965,9.44123 -1.89757,14.49238 0.89409,19.45947 3.856,6.86081 12.06649,11.04002 21.82829,11.11078 3.02325,0.0219 3.23034,0.1958 2,1.67935 -2.03724,2.45653 -7.24638,4.34125 -12.09032,4.37441 l -4.28212,0.0293 3.1388,2.85723 c 4.47636,4.07481 13.07485,6.97359 22.93304,7.73136 6.90652,0.53087 8.46069,0.94532 8.22057,2.19217 -0.48448,2.51571 -14.22187,8.88367 -21.99165,10.19422 -4.11663,0.69436 -8.48957,2.17272 -10.53734,3.56237 -3.26539,2.21596 -9.17751,4.38563 -11.98529,4.39844 -0.78448,0.004 -0.33703,1.66972 1.25,4.65452 3.04756,5.73166 3.1211,8.6683 0.28331,11.3121 -1.85026,1.72378 -3.43468,2.02355 -10.25,1.93928 -8.55924,-0.10584 -14.23418,-1.18177 -11.56144,-2.19197 0.825,-0.31183 5.04527,-1.25654 9.37837,-2.09936 4.33311,-0.84282 8.08626,-1.74029 8.34034,-1.99436 0.97193,-0.97194 -5.17336,-12.84727 -6.99744,-13.52204 -1.05411,-0.38994 -4.23512,-0.36897 -7.06891,0.0466 -14.89187,2.18385 -16.03259,2.1878 -18.65236,0.0646 -2.14053,-1.73476 -2.52384,-2.92473 -2.6658,-8.27584 l -0.16581,-6.24976 -8.66759,-5.78889 c -4.76718,-3.18389 -11.11772,-7.8821 -14.11232,-10.44046 -4.37776,-3.74004 -5.93579,-4.52833 -7.95061,-4.02264 -4.27673,1.07339 -4.87307,4.09914 -3.66167,18.57864 1.25991,15.05923 3.67689,21.75819 9.91871,27.49086 4.32762,3.97462 3.91129,4.36433 -1.63802,1.53328 -9.62542,-4.91052 -13.52908,-14.00882 -13.54558,-31.57078 -0.0128,-13.60252 1.13027,-16.78133 6.45481,-17.9508 1.66863,-0.36649 3.03388,-0.86191 3.03388,-1.10092 0,-1.07395 -4.5922,-7.38306 -5.38197,-7.39414 -2.55479,-0.0359 -7.58142,4.43885 -9.01713,8.02706 -2.2218,5.55282 -2.05462,18.5814 0.35762,27.87035 4.23106,16.2927 11.85458,26.59843 24.63079,33.29672 9.44269,4.95059 16.98334,6.69659 33.34472,7.72081 7.66288,0.47969 14.44173,1.18688 15.06412,1.57154 2.41519,1.49266 8.00306,-0.69442 12.80517,-5.01193 l 4.94928,-4.44983 4.76259,1.62278 c 3.70134,1.26117 6.90424,3.79684 14.3737,11.37934 5.28611,5.36611 12.53611,11.64808 16.11111,13.95993 3.575,2.31184 5.6,3.91095 4.5,3.55356 -5.02125,-1.63137 -13.59275,-7.80486 -22.54607,-16.23844 -12.27901,-11.56622 -14.56717,-12.27507 -20.72247,-6.41967 -5.28252,5.02514 -10.10996,6.45596 -17.22756,5.10614 -10.07295,-1.9103 -10.69493,-1.27134 -6.60984,6.7902 3.07795,6.07405 7.02819,10.00813 12.35594,12.30542 2.3375,1.00791 4.25,2.51498 4.25,3.34905 0,2.16309 -3.67007,2.80653 -13.7191,2.40524 L 424.5,536.5 424.36932,548 c -0.11875,10.44932 -1.51465,18.18801 -3.01086,16.6918 -0.32207,-0.32207 -1.62011,-3.54625 -2.88455,-7.16483 -2.40945,-6.89544 -7.11143,-14.98396 -10.48534,-18.03731 C 406.0358,537.72243 406,537.76091 406,541.62708 c 0,8.89651 -4.09934,18.5391 -9.65282,22.70568 C 393.50873,566.46234 391,565.2184 391,561.68139 c 0,-1.84601 -0.39824,-1.6953 -3.62661,1.37244 -1.99464,1.89539 -7.634,7.93093 -12.53191,13.41229 -8.47395,9.48341 -8.79476,10.00827 -6.62339,10.83604 1.25505,0.47846 14.87158,1.04117 30.25895,1.25049 27.94812,0.38017 60.39266,2.17213 91.52296,5.05494 9.075,0.84038 18.975,1.70695 22,1.92569 3.025,0.21875 12.11426,1.31732 20.19835,2.44128 32.57476,4.52897 47.80165,9.2105 47.80165,14.69669 0,0.84061 -3.83315,5.60032 -8.51811,10.57713 -4.68495,4.97681 -8.30421,9.26264 -8.04278,9.52407 0.26143,0.26142 11.85708,4.27081 25.76811,8.90975 13.91103,4.63893 25.66924,8.80714 26.12935,9.26268 0.46012,0.45555 -3.4528,4.01016 -8.69536,7.89914 -5.24257,3.88898 -13.26902,10.33063 -17.83657,14.31478 -11.59124,10.11071 -41.89524,40.0694 -41.55717,41.08362 0.15352,0.46055 4.09814,2.5305 8.76583,4.5999 20.1771,8.94543 21.21689,9.84558 17.61421,15.24886 -1.25008,1.87485 -5.79651,10.15882 -10.10319,18.40882 -4.30668,8.25 -11.58647,21.85291 -16.17732,30.2287 -4.59085,8.37578 -8.347,15.83705 -8.347,16.5806 0,0.74354 2.05973,7.6112 4.57717,15.26147 6.25222,18.99991 9.68805,33.67028 9.70278,41.42923 0.007,3.575 -0.33855,13.94187 -0.76743,23.0375 -0.63938,13.56 -0.4892,17.97111 0.83411,24.5 1.81918,8.97543 11.3003,39.27942 12.90365,41.24325 0.83065,1.01742 11.55292,1.22303 52.14769,1 L 669.5,945.5 Z M 629.00374,410.30902 c 0.006,-1.38854 4.0761,-7.56251 4.62388,-7.01473 0.63799,0.63798 -2.22959,6.34168 -3.62051,7.20131 -0.55391,0.34234 -1.00543,0.25838 -1.00337,-0.18658 z M 532,386.48715 c 0,-1.97917 7.85656,-12.2259 14.22668,-18.55483 4.1982,-4.17105 8.67748,-9.78308 10.18865,-12.76524 l 2.69677,-5.32181 -4.05605,-4.40029 c -5.41619,-5.87588 -5.1846,-6.96899 0.32986,-1.55695 3.77861,3.70842 4.66955,4.15266 6.43426,3.20821 1.12659,-0.60293 2.22181,-1.09624 2.43382,-1.09624 0.21201,0 -0.18089,3.0375 -0.87311,6.75 -0.69222,3.7125 -1.51259,8.33679 -1.82306,10.27619 -0.85991,5.37176 -5.71654,10.36486 -15.85583,16.30141 C 534.14248,386.09568 532,387.21517 532,386.48715 Z M 568,375.625 c 0,-0.75625 -0.25729,-2.89375 -0.57175,-4.75 -0.54118,-3.19453 -0.4877,-3.2712 1,-1.43387 C 570.16617,371.58748 570.57557,377 569,377 c -0.55,0 -1,-0.61875 -1,-1.375 z M 534.17091,836.75 c -1.99008,-11.0474 -1.99173,-63.42641 -0.003,-83.62472 l 1.4156,-14.37473 -4.04193,-1.69891 c -2.22307,-0.93439 -8.22087,-2.99126 -13.32845,-4.57081 l -9.2865,-2.87192 0.64868,-3.05445 C 512.55124,712.54344 525.62965,682.52935 535.96183,666 543.8421,653.39319 556.91547,636.30311 568.09966,623.98799 573.54485,617.9922 578,612.67853 578,612.17984 c 0,-1.85342 -11.84825,-6.10855 -22.5,-8.08056 -30.58337,-5.66205 -94.12109,-10.15989 -149.5,-10.58313 -38.49228,-0.29418 -41.83064,-0.5989 -60.5494,-5.52695 -17.55025,-4.62041 -22.44913,-4.66438 -60.4506,-0.54265 -18.425,1.99841 -36.3125,3.90555 -39.75,4.23807 -5.09972,0.49332 -6.25,0.93223 -6.25,2.38481 0,1.72377 7.57728,24.28127 10.53068,31.34976 1.1107,2.65828 3.17726,4.48212 8.71269,7.6894 18.52467,10.73336 56.59842,34.24089 83.00577,51.24951 19.1635,12.34295 54.63361,32.94516 81.88694,47.56263 11.9571,6.41326 28.97352,18.53763 41.07482,29.26625 3.77114,3.34336 7.03873,5.89673 7.26131,5.67414 1.20655,-1.20655 -45.18236,-49.65621 -63.47221,-66.29185 -4.675,-4.25217 -7.6,-7.27541 -6.5,-6.71831 5.48617,2.77852 37.87843,33.13463 59.91527,56.14904 13.57439,14.17657 18.66852,21.29817 37.58473,52.54355 8.29283,13.69793 11.13243,17.39238 22.34672,29.07417 7.0657,7.36026 13.17604,13.38228 13.57854,13.38228 0.4025,0 0.063,-3.7125 -0.75435,-8.25 z m 7.79918,-51.25 c 6.42626,-15.1732 18.26102,-38.04512 24.53963,-47.42544 4.27956,-6.39373 5.29973,-8.58713 4.3004,-9.24604 -5.1628,-3.40409 -12.48566,-7.13393 -19.31012,-9.83546 -4.4,-1.74178 -8.17659,-3.34185 -8.39242,-3.55572 -1.95316,-1.93539 43.74035,-49.99222 55.09443,-57.94397 3.13611,-2.19635 5.72313,-4.21837 5.74893,-4.49337 0.0366,-0.38944 -16.10665,-7.61348 -41.94232,-18.7691 -0.91042,-0.39311 -15.9376,19.80044 -22.52498,30.2691 -10.40743,16.53948 -18.83765,35.01027 -24.02395,52.63701 -1.46577,4.98171 -2.28133,9.40607 -1.81236,9.83191 0.46897,0.42584 6.12193,2.41441 12.56215,4.41905 6.44021,2.00463 12.06704,4.28373 12.50407,5.06465 0.43703,0.78093 0.50052,6.06106 0.14109,11.73362 -1.09699,17.31284 -2.14731,48.3443 -1.61834,47.81376 0.27418,-0.275 2.40438,-5 4.73379,-10.5 z M 433.65342,472.25 c -0.76643,-1.23722 -18.55655,-9.68021 -19.1489,-9.08785 -0.30134,0.30134 0.0249,2.2963 0.72501,4.43326 1.00811,3.07715 1.89669,4.01877 4.27168,4.52666 4.30846,0.92137 14.70194,1.01532 14.15221,0.12793 z m 221.5608,-21.36907 c -0.40869,-4.79426 -1.59286,-5.54766 -5.66644,-3.6051 -3.27674,1.56256 -6.2343,5.80477 -7.97628,11.44084 -0.6587,2.13118 -0.40334,2.08748 6.62169,-1.13329 7.11605,-3.26249 7.29935,-3.43748 7.02103,-6.70245 z m 22.63119,-6.30975 18.07486,-7.92881 -0.0636,-5.32119 C 695.82176,428.39453 695.52102,426 695.18841,426 c -0.33261,0 -9.27344,4.13449 -19.8685,9.18775 -18.51634,8.83128 -19.24185,9.28717 -18.69889,11.75 1.11371,5.05175 1.56055,6.16783 2.34911,5.8673 0.44023,-0.16778 8.9341,-3.87302 18.87528,-8.23387 z M 659.34753,440.58655 670,435.67309 V 374.83655 C 670,341.37645 669.7344,314 669.40978,314 c -1.59311,0 -8.33026,5.81291 -11.69364,10.08944 -9.30403,11.83007 -29.67538,21.13659 -49.46614,22.5983 -4.5375,0.33513 -8.23731,0.87998 -8.22181,1.21079 0.0479,1.02157 24.09474,16.33716 31.00761,19.74894 3.59468,1.77413 9.60674,4.2338 13.36012,5.46595 l 6.82432,2.24027 -0.47186,4.18635 c -0.25953,2.30249 -2.88511,9.53541 -5.83463,16.07315 -4.88678,10.83177 -5.35797,12.50893 -5.3088,18.89599 0.0607,7.88573 3.68988,21.49082 5.7327,21.49082 0.70405,0 2.14481,0.6323 3.20169,1.4051 1.8576,1.35832 1.86303,1.5279 0.16311,5.09268 -0.96716,2.02816 -1.36448,3.53336 -0.88293,3.34489 0.48155,-0.18847 5.66915,-2.55372 11.52801,-5.25612 z m 47.80643,-9.4504 c 4.59032,-2.12511 9.61797,-4.38115 11.17255,-5.01342 2.533,-1.0302 2.75465,-1.48566 2.13452,-4.38615 -1.42155,-6.64898 -4.00001,-7.30196 -10.43282,-2.64205 -2.34953,1.70199 -5.90455,3.65761 -7.90004,4.34584 -3.47306,1.19781 -3.64109,1.47166 -3.93043,6.40547 -0.16624,2.83479 -0.097,5.15416 0.15396,5.15416 0.25093,0 4.21194,-1.73873 8.80226,-3.86385 z M 477,369.58179 c 0,-0.78002 0.24088,-2.04593 0.53528,-2.81314 0.42309,-1.10256 -0.8432,-1.40789 -6.04168,-1.4568 -3.61732,-0.034 -6.4457,0.0692 -6.28528,0.22939 1.06999,1.06846 9.52478,5.43692 10.54168,5.44671 0.6875,0.007 1.25,-0.62615 1.25,-1.40616 z m 4.93509,-14.45321 c 4.00206,-7.92803 12.41021,-18.85472 27.41638,-35.62858 l 12.52463,-14 -6.68805,-0.65115 c -3.67843,-0.35813 -7.95484,-1.14563 -9.50315,-1.75 -1.5483,-0.60437 -3.1233,-1.09725 -3.5,-1.09529 -0.37669,0.002 -0.69699,4.38946 -0.71176,9.75 -0.0238,8.64164 -0.33151,10.31321 -2.71442,14.74644 -3.04673,5.66821 -6.41665,10.20661 -7.04299,9.48506 -0.23159,-0.26678 -1.41027,-4.76006 -2.61929,-9.98506 -1.20903,-5.225 -3.05647,-11.075 -4.10542,-13 l -1.90719,-3.5 -0.0657,6 c -0.0452,4.12719 -0.87351,7.87281 -2.65381,12 -3.57349,8.28422 -5.45444,17.14855 -4.77434,22.5 0.60614,4.76956 2.29013,11 2.97313,11 0.22443,0 1.7418,-2.64214 3.37193,-5.87142 z M 311,146.5 c 0,-0.825 -0.7301,-1.5 -1.62244,-1.5 -1.3288,0 -1.39713,0.27149 -0.37756,1.5 0.68469,0.825 1.41479,1.5 1.62244,1.5 C 310.8301,148 311,147.325 311,146.5 Z M 47.136643,534.26972 c -1.299846,-1.48178 -1.967183,-2.82621 -1.482971,-2.98761 0.484213,-0.1614 3.572723,-2.05283 6.863357,-4.20316 11.279585,-7.37089 20.007615,-17.72488 24.457066,-29.01323 L 78.970816,493 H 67.853247 56.735678 l -7.686038,8.19755 -7.686039,8.19755 -3.127517,-2.22699 -3.127518,-2.22699 4.563635,-4.20661 c 5.312146,-4.89657 12.134025,-14.18372 15.450986,-21.03463 2.320285,-4.79235 2.330554,-4.79904 6.350428,-4.13576 4.578563,0.75547 5.431286,1.24694 3.886957,2.24025 C 64.326674,478.46938 61,484.30247 61,485.45034 c 0,0.30231 5.5125,0.56397 12.25,0.58146 16.78513,0.0436 16.860522,0.11538 12.089162,11.51353 -4.431231,10.58563 -11.623106,21.61814 -17.810072,27.32109 -4.241258,3.90946 -16.107679,12.1558 -17.434126,12.11551 -0.32723,-0.01 -1.658475,-1.23043 -2.958321,-2.71221 z m 15.306512,-84.64019 c -0.327223,-1.30375 -0.448296,-8.95439 -0.269052,-17.00141 0.179243,-8.04702 0.231681,-14.63031 0.116529,-14.62953 -0.115152,7.8e-4 -5.739156,3.15016 -12.497786,6.99864 l -12.288418,6.99724 -1.729978,-2.24724 C 34.822962,428.51125 34.035499,427.05 34.024531,426.5 c -0.01097,-0.55 2.772348,-2.35 6.185144,-4 9.776257,-4.72657 28.575331,-17.63506 36.833574,-25.29198 l 7.54325,-6.99398 3.149738,2.64298 3.149738,2.64298 -10.192987,8.43152 c -5.606144,4.63734 -10.249238,8.79984 -10.317988,9.25 C 70.30625,413.63169 70.19375,422.55 70.125,433 L 70,452 h -3.480948 c -2.828298,0 -3.592496,-0.44444 -4.075897,-2.37047 z M 32.329633,361.15925 29.159266,359.5 32.372075,354 c 5.538804,-9.48186 8.976884,-19.8103 12.235971,-36.75843 0.394298,-2.05046 0.823714,-2.1988 4.663122,-1.61084 4.813307,0.73709 5.645756,1.18426 4.046456,2.17364 -0.618451,0.3826 -1.608822,3.31657 -2.200826,6.51994 -2.376974,12.86197 -10.672059,34.41449 -14.442739,37.52552 -0.780224,0.64373 -2.23755,0.41208 -4.344426,-0.69058 z M 85.066178,357.75 C 83.059614,350.92985 75.465437,331.86499 72.098361,325.19485 70.394262,321.81905 69,318.66643 69,318.18903 69,317.33664 73.320941,315 74.897189,315 c 1.893574,0 20.282387,43.37611 18.870856,44.51317 C 92.577775,360.47199 88.864086,362 87.724029,362 c -0.793021,0 -1.953323,-1.85537 -2.657851,-4.25 z m -2.611633,-42.20455 c -6.989686,-6.98968 2.566705,-17.73206 10.048971,-11.29608 3.844609,3.30699 3.890241,8.15502 0.107387,11.40889 -3.503692,3.01375 -7.069404,2.97415 -10.156358,-0.11281 z m 8.974026,-2.11688 C 92.292857,312.56429 93,311.02143 93,310 c 0,-4.04928 -5.971931,-6.62807 -8.8,-3.8 -1.546918,1.54692 -1.546918,6.05308 0,7.6 1.682749,1.68275 5.363524,1.49362 7.228571,-0.37143 z m -56.682464,-35.13701 -2.652477,-2.65248 5.054539,-3.3288 c 7.912275,-5.21085 15.28349,-11.88507 21.140814,-19.1418 C 63.933024,246.17598 71,235.02913 71,233.11919 71,232.34024 66.135958,232 55,232 H 39 v -3.5 -3.5 h 19.065741 c 16.969725,0 21.258541,0.45728 23.747447,2.53198 0.526289,0.4387 -7.434145,15.6825 -10.688566,20.46802 l -3.06025,4.5 7.717814,6.99615 C 80.026984,263.34403 85.525,268.38682 88,270.70235 l 4.5,4.21005 -3.004454,3.02902 -3.004453,3.02903 L 75.53066,269.98522 C 69.502421,263.94335 64.045336,259 63.403802,259 c -0.641533,0 -2.285072,1.46662 -3.652307,3.25916 -2.570211,3.36972 -14.599288,13.77563 -19.54231,16.90533 -2.772377,1.75535 -2.846676,1.74347 -5.463078,-0.87293 z"
         id="path843" />
      <path
         style="fill:#646b8c;fill-opacity:1;stroke:#646b8c;stroke-opacity:1;stroke-width:1;stroke-miterlimit:4;stroke-dasharray:none"
         d="M 60,754.5 C 60,559.66667 60.00682,559 62,559 c 1.991795,0 2,0.66667 2,162.5 0,89.375 0.343479,162.5 0.763286,162.5 0.419807,0 2.97666,-4.1625 5.681897,-9.25 11.725598,-22.0513 56.212367,-93.94254 75.339697,-121.75 12.44287,-18.08953 29.69089,-38.58887 49.22156,-58.5 15.60113,-15.90504 20.5002,-21.56649 23.92731,-27.65084 2.3702,-4.20796 8.29762,-12.30796 13.17205,-18 4.87442,-5.69204 10.0267,-11.78359 11.44951,-13.53679 l 2.58693,-3.18764 -5.47388,-14.81236 c -6.50449,-17.60122 -7.65539,-21.59069 -7.66278,-26.56237 -0.003,-2.0625 -0.19327,-3.75 -0.42267,-3.75 -0.22941,0 -2.5431,0.91131 -5.14154,2.02513 -2.59844,1.11382 -4.8902,1.85937 -5.0928,1.65677 -0.92713,-0.92713 7.09747,-9.66891 13.01839,-14.1819 3.60793,-2.75 6.57642,-5.225 6.59664,-5.5 0.0202,-0.275 -4.80081,-0.5 -10.71341,-0.5 H 220.5 L 204,562.29412 c -9.075,-4.51324 -22.53391,-10.23215 -29.9087,-12.7087 -7.37478,-2.47655 -13.82119,-4.91531 -14.32536,-5.41948 -0.55555,-0.55555 1.37819,-1.1714 4.9087,-1.5633 C 177.77217,541.14876 180,540.77885 180,540.05804 c 0,-0.41486 -1.82734,-1.57831 -4.06076,-2.58544 -4.31026,-1.94366 -7.80583,-6.14514 -4.27507,-5.1384 12.09109,3.44756 18.59869,3.00209 26.91555,-1.84249 6.49128,-3.78117 6.77638,-4.46492 4.45207,-10.67719 -3.20283,-8.56034 -7.43923,-14.47157 -12.0612,-16.82953 -4.80353,-2.45057 -8.10442,-2.08612 -14.90321,1.64546 -3.84164,2.10853 -4.62308,2.24242 -5.86122,1.00429 -4.00834,-4.00835 -2.01841,-16.60604 4.27033,-27.0343 1.95675,-3.24476 3.36356,-6.09372 3.12626,-6.33102 -1.61606,-1.61606 -10.03008,7.38082 -14.74012,15.76121 -1.227,2.18315 -2.80722,3.96937 -3.51159,3.96937 -3.75171,0 -4.87116,-11.12057 -1.98177,-19.68686 2.02438,-6.00175 7.98177,-15.55853 14.34025,-23.00445 l 4.43314,-5.1913 -3.82133,-0.63652 c -9.62828,-1.60379 -18.08502,-5.8023 -20.40006,-10.12798 -1.90539,-3.56026 -0.45606,-4.31425 5.33138,-2.77355 7.0806,1.88496 12.44186,1.74262 17.28872,-0.459 10.13966,-4.60581 15.54167,-17.5176 19.48324,-46.56848 1.12321,-8.27852 2.92405,-17.71748 4.00185,-20.97547 1.07781,-3.25799 1.707,-6.17626 1.3982,-6.48506 -1.68495,-1.68495 -8.78981,13.08636 -10.03257,20.85816 -0.78719,4.92279 -2.85602,7.02923 -4.87596,4.96461 -1.6022,-1.63764 -3.9222,-17.05932 -3.00236,-19.95749 0.7129,-2.24615 -0.62856,-2.52638 -3.50238,-0.73165 -1.456,0.90928 -2.25215,0.93428 -3.08944,0.097 -0.83728,-0.83728 -0.42054,-3.92325 1.61713,-11.97495 7.11757,-28.12447 14.97172,-42.28681 30.33649,-54.7017 1.85656,-1.50012 3.16426,-2.93881 2.90599,-3.19708 -0.68901,-0.689 -8.50028,2.22504 -12.67183,4.72731 -1.98535,1.1909 -6.58482,4.56359 -10.22105,7.49487 -17.70106,14.26941 -8.49413,-3.64925 11.44485,-22.27413 4.64937,-4.34295 11.65089,-9.80495 15.55894,-12.13779 7.1834,-4.288 18.33925,-9.25848 20.77994,-9.25848 2.07755,0 1.59626,-1.05144 -3.61578,-7.89916 C 220.44,238.15245 213.37204,222.78998 212.30268,211.33842 211.66603,204.5207 213.43002,196 215.47809,196 c 0.66999,0 2.0532,1.85177 3.07379,4.11505 3.46622,7.68671 18.6565,27.00991 20.09897,25.56744 0.23019,-0.2302 -0.0361,-2.39043 -0.59171,-4.80051 -1.50787,-6.54043 -1.26906,-22.65583 0.43253,-29.18868 1.76897,-6.79154 5.53553,-14.57995 9.87165,-20.41238 4.85833,-6.53484 5.49844,-6.02428 7.17026,5.71908 0.88618,6.22482 4.44833,20.33116 5.37512,21.28578 0.41957,0.43218 2.43278,-1.9197 4.47379,-5.2264 6.41389,-10.39132 15.08227,-21.44857 24.83469,-31.67874 C 300.15507,150.95592 303,147.37112 303,145.27343 c 0,-1.03633 -22.81837,-1.23294 -119.25,-1.02749 L 64.5,144.5 64.234895,173.75 C 63.977313,202.1701 63.913474,203 61.984895,203 60.047043,203 60,202.25343 60,171.5 V 140 h 126.94136 126.94136 l 3.26233,-6.25 c 4.26451,-8.16997 17.25025,-21.146 25.55599,-25.53688 C 348.69462,105.04458 369.00554,97 371.01187,97 c 0.54164,0 -0.70195,2.283646 -2.76353,5.07477 -7.6982,10.42238 -10.24332,14.4269 -9.35695,14.72236 0.50149,0.16716 3.51626,-1.36213 6.6995,-3.39842 8.82124,-5.64288 24.98571,-13.02047 33.90911,-15.476383 6.03416,-1.660733 11.74738,-2.316562 23.25,-2.668903 8.3875,-0.25692 15.24659,-0.08154 15.24242,0.389724 -0.004,0.471269 -3.71666,1.874567 -8.25,3.118441 -11.71516,3.214451 -21.76866,8.442421 -28.85972,15.007491 -5.76732,5.33953 -6.74893,8.14913 -1.69368,4.84771 3.63727,-2.37538 19.50785,-8.24465 28.49129,-10.53667 13.47464,-3.4379 22.70359,-4.95883 45.81969,-7.55108 12.1,-1.356897 24.23417,-3.231265 26.96482,-4.165261 12.72866,-4.353734 23.95202,-24.868235 22.02839,-40.264392 -0.84898,-6.795068 -0.86449,-6.475626 0.33378,-6.87505 1.50954,-0.503179 8.68693,13.305793 11.83795,22.775663 1.55556,4.675 2.93175,8.676925 3.05818,8.893167 0.12643,0.216242 4.62796,-0.857136 10.00338,-2.385284 C 562.84576,74.209716 579,73.95117 579,78.007356 c 0,0.515343 -2.79643,2.324444 -6.2143,4.020224 -10.83887,5.377726 -11.93298,7.685075 -1.64847,3.47643 13.24926,-5.421887 28.31594,-6.900037 40.66235,-3.98927 C 618.73379,83.149537 624,85.522862 624,87.013108 c 0,0.528962 -3.20609,2.576312 -7.12465,4.549667 -3.91856,1.973355 -6.73106,3.94572 -6.25,4.383034 0.48106,0.437315 7.30128,2.495404 15.15606,4.573531 13.14974,3.47901 14.61531,3.67838 18.49518,2.51594 5.70434,-1.70906 12.32927,-8.417425 13.2712,-13.438326 0.54051,-2.881154 0.18788,-5.122632 -1.41384,-8.987067 -2.86955,-6.923317 -2.78673,-7.99054 0.55506,-7.151806 7.96922,2.000149 14.63689,11.657994 17.70408,25.643648 0.53389,2.434391 1.03806,2.641981 7.83875,3.227521 9.68622,0.83398 17.57302,2.99661 25.62336,7.02614 8.68338,4.3464 8.92363,5.84896 1.17078,7.32233 -3.31676,0.63032 -8.12317,2.1591 -10.68091,3.39728 C 693.68967,122.32864 685,129.83007 685,131.59525 c 0,0.51595 2.61874,0.93808 5.81942,0.93808 3.9733,0 6.7131,0.58557 8.63655,1.84586 l 2.81713,1.84586 -6.34954,3.3925 C 683.58388,146.21054 678,153.80421 678,163.99228 c 0,21.24632 16.30545,22.78835 29.16017,2.75772 1.67657,-2.6125 3.51825,-4.75 4.09261,-4.75 1.71535,0 0.1143,15.94386 -2.23032,22.21042 -1.15723,3.09298 -3.08681,6.87296 -4.28795,8.39996 -1.8353,2.33321 -2.1355,3.82384 -1.88072,9.33878 0.5405,11.69984 -3.606,24.5084 -10.86138,33.55084 -3.10045,3.86411 -3.18842,4.23095 -2.58947,10.79831 2.17441,23.84223 -11.1888,45.78215 -33.32792,54.7183 -4.16626,1.68165 -8.92502,3.72777 -10.57502,4.54693 l -3,1.48938 4.5,-0.55257 c 8.93296,-1.09689 24.08967,-9.96355 40.26559,-23.55533 3.01641,-2.53453 4.04978,-2.92818 5.19396,-1.97859 1.14219,0.94793 1.19911,1.72121 0.28409,3.85951 -2.28932,5.3499 -9.60392,15.77985 -14.11891,20.13227 L 674,309.41642 v 61.79179 C 674,405.19369 674.38707,433 674.86015,433 c 0.47309,0 4.85586,-1.84602 9.7395,-4.10227 4.88364,-2.25625 11.45802,-4.90484 14.60973,-5.88577 3.15172,-0.98092 7.12847,-2.9599 8.83723,-4.39773 1.70876,-1.43782 3.63481,-2.61199 4.28012,-2.60926 2.21707,0.009 -4.82986,4.97534 -9.49271,6.68949 -5.07751,1.86658 -6.36363,4.40748 -5.19317,10.25977 l 0.59084,2.95423 6.81543,-3.43219 C 713.18626,428.37746 722,424.9331 722,425.85117 c 0,0.36245 -2.8125,1.72839 -6.25,3.0354 -3.4375,1.30701 -9.625,4.10399 -13.75,6.21551 -4.125,2.11152 -12,5.86141 -17.5,8.33308 l -10,4.49396 -0.25196,251.03544 L 673.99608,950 H 366.99804 60 Z m 610,-56.58333 c 0,-136.44584 -0.38334,-247.93334 -0.85186,-247.75 -0.46852,0.18333 -6.34807,2.77391 -13.06566,5.75683 -8.64562,3.83907 -11.78231,5.66498 -10.73684,6.25006 1.28445,0.71881 1.29948,1.58735 0.11526,6.66364 -0.74894,3.2104 -2.27816,8.16217 -3.39827,11.00392 l -2.03657,5.16682 2.53087,13.74603 c 1.39198,7.56032 3.63612,17.25676 4.98697,21.54765 1.35086,4.29089 2.4561,9.28363 2.4561,11.09497 0,3.81838 -5.76392,13.2309 -11.34532,18.52695 l -3.60799,3.42354 -33.96681,0.72314 -33.96681,0.72314 -18.30653,6.18894 c -10.0686,3.40391 -19.22462,6.77391 -20.34672,7.48889 -1.3939,0.88816 -2.59154,3.63282 -3.78073,8.66438 -0.95731,4.05044 -2.21098,8.03943 -2.78595,8.86443 -0.92925,1.33333 -0.99009,1.33333 -0.54757,0 0.27381,-0.825 1.29467,-5.03387 2.26858,-9.35304 1.29177,-5.72886 2.36146,-8.2401 3.95463,-9.28399 2.90279,-1.90198 29.43765,-11.85831 36.97177,-13.87244 4.3958,-1.17515 14.14693,-1.8282 37.16387,-2.48893 35.69905,-1.02478 33.70314,-0.51024 40.85482,-10.53242 5.13539,-7.1966 5.44316,-9.67566 2.41703,-19.46918 -1.10465,-3.575 -3.14269,-13.34814 -4.52897,-21.71809 -2.52033,-15.21702 -2.52037,-15.21836 -0.57577,-19.0301 2.59577,-5.08812 5.41838,-14.97371 4.63659,-16.23867 C 644.16374,463.45591 643.28862,463 642.56343,463 c -0.7252,0 -1.80881,-0.59074 -2.40802,-1.31274 -1.37623,-1.65826 5.46547,-16.76997 7.27763,-16.07458 0.64681,0.2482 5.98898,-1.84782 11.87149,-4.65784 L 670,435.84573 v -60.92287 c 0,-33.50757 -0.3375,-60.91989 -0.75,-60.91627 -1.6887,0.0148 -6.40182,3.93274 -13.86002,11.52152 -12.14824,12.36091 -25.44545,18.29024 -46.79106,20.86448 L 598.5,347.6105 611,355.95372 c 13.20513,8.81386 27.28188,16.06973 35.35025,18.22131 4.82841,1.28758 4.84805,1.30988 4.35974,4.95049 -0.26978,2.01139 -2.62396,8.54349 -5.23149,14.51578 -8.03153,18.39536 -7.77676,17.09978 -5.52757,28.10977 1.08518,5.31205 1.80844,9.82289 1.60725,10.02408 -0.2012,0.2012 -1.0445,-2.7034 -1.874,-6.45467 -3.13751,-14.18869 -3.1556,-13.9073 1.62808,-25.32131 4.13509,-9.86647 8.18621,-21.97532 7.49692,-22.4084 -0.17005,-0.10684 -3.00918,-1.0137 -6.30918,-2.01524 -9.99305,-3.03285 -19.91775,-8.67622 -44,-25.01922 l -23,-15.60855 -0.6511,-5.22388 c -0.35811,-2.87314 -0.69561,-10.06138 -0.75,-15.97388 -0.0904,-9.82186 -0.97087,-13.132 -2.46053,-9.25 -0.31658,0.825 -1.26472,1.5 -2.10699,1.5 C 568.44416,306 568,304.97169 568,302.45455 c 0,-4.27609 -2.65097,-7.23052 -9.68715,-10.79602 C 553.67567,289.3087 546,282.09544 546,280.08747 c 0,-0.49872 -3.09299,-1.42847 -6.87331,-2.0661 -3.78032,-0.63763 -9.85532,-2.65967 -13.5,-4.49342 C 521.98201,271.69421 519,270.42698 519,270.7119 c 0,1.22549 5.22753,20.16839 6.64922,24.09465 1.45786,4.02617 1.75051,4.26457 4.49505,3.66176 6.0161,-1.32135 18.26061,-0.77667 22.60573,1.0056 2.3375,0.95879 4.25,2.10717 4.25,2.55196 0,0.88276 -5.59093,3.0761 -13.62182,5.34388 -8.23424,2.32521 -10.7219,4.07031 -19.53611,13.70463 -4.58814,5.01504 -12.00102,11.98252 -16.47307,15.48329 -15.89476,12.44261 -22.19739,22.56496 -25.18478,40.44806 -1.84363,11.03639 -2.11933,11.29564 -4.12284,3.87703 l -1.24696,-4.61724 -5.79829,-0.60605 c -3.18906,-0.33332 -8.35336,-1.56201 -11.47621,-2.73042 -3.12286,-1.16841 -5.90783,-1.89448 -6.18882,-1.61348 -0.281,0.281 0.17797,1.56245 1.01993,2.84767 4.75357,7.25615 9.46958,26.5424 8.17619,33.43675 -0.73331,3.90885 -2.23413,4.4166 -3.39924,1.15001 -5.22111,-14.63829 -6.46593,-17.80257 -7.62956,-19.39392 -2.07526,-2.83809 -2.58906,-1.23082 -1.01726,3.1822 1.85111,5.19722 1.85473,11.97069 0.01,18.05279 -1.98539,6.54468 -1.86178,12.03951 0.38199,16.97967 C 454.3002,435.07286 462.61428,440 471.86602,440 c 2.27369,0 4.13398,0.35298 4.13398,0.78439 0,1.59997 -6.1188,4.32391 -11.01555,4.90386 -5.99976,0.71058 -5.98103,1.79387 0.0956,5.52754 5.54385,3.40634 14.61722,5.78421 22.07107,5.78421 3.15199,0 5.98773,0.41559 6.30166,0.92353 1.49632,2.4211 -14.12947,9.98107 -22.39293,10.83401 -3.52552,0.3639 -7.09378,1.58945 -10.13858,3.4822 -2.58411,1.60638 -6.54853,3.16884 -8.80981,3.47214 -4.63594,0.62181 -4.88761,1.25889 -2.23988,5.67009 6.23952,10.39518 0.686,15.16755 -15.32265,13.16741 -6.7726,-0.84618 -6.46706,-2.04857 0.73567,-2.89511 6.70056,-0.78752 11.71568,-2.50085 11.71465,-4.0021 -4.3e-4,-0.63369 -1.33132,-3.96467 -2.95754,-7.40217 -3.41099,-7.2102 -3.2807,-7.17313 -16.8312,-4.78841 -12.53931,2.20676 -15.7634,0.22433 -15.53861,-9.55435 l 0.13405,-5.83094 -4.65296,-2.68131 c -6.42989,-3.70529 -17.05928,-11.61238 -20.59592,-15.32111 -3.1193,-3.27106 -5.33805,-3.34679 -8.80703,-0.30061 -1.41303,1.24081 -1.74855,3.1917 -1.74245,10.13172 0.0148,16.79711 3.34566,28.56391 9.65352,34.10229 4.07151,3.57483 2.11489,4.01631 -2.54927,0.5752 -7.15728,-5.28047 -10.40834,-12.59377 -11.59473,-26.08248 -0.70452,-8.0101 0.73529,-17.01638 3.14626,-19.68048 0.90565,-1.00073 2.9269,-1.81952 4.49166,-1.81952 3.49943,0 3.51647,-0.42359 0.20901,-5.19625 -2.99442,-4.32095 -4.94945,-4.70428 -8.74912,-1.71545 -4.85213,3.81668 -6.08495,7.4912 -6.00948,17.9117 0.1158,15.98985 5.25853,30.3133 14.5235,40.45066 9.15786,10.02015 26.03569,16.49365 43.10254,16.53198 4.25229,0.01 10.78845,0.54158 14.5248,1.18229 8.69727,1.49142 11.0125,0.84587 16.21344,-4.52076 l 4.25344,-4.38895 5.03345,1.60964 c 3.95845,1.26586 6.19472,2.92416 10.47081,7.76461 2.99054,3.38523 8.43779,8.53796 12.10499,11.4505 8.16647,6.48594 9.57926,7.84477 5.66763,5.45117 -5.28366,-3.23317 -15.00892,-11.27472 -19.41105,-16.05047 -2.46035,-2.66916 -5.98805,-5.23943 -8.32073,-6.06245 l -4.04954,-1.42876 -4.77295,4.46454 c -5.8594,5.48078 -8.19682,6.11279 -18.21778,4.92584 -4.337,-0.51371 -8.10081,-0.58556 -8.36402,-0.15968 -0.88705,1.43528 4.78079,12.52778 7.99112,15.63935 1.7508,1.69694 4.97465,3.70554 7.16411,4.46355 8.72245,3.01979 2.11334,6.28466 -10.76916,5.31992 l -7.75,-0.58038 -0.006,10.7187 c -0.003,5.89529 -0.50591,12.5187 -1.11742,14.7187 l -1.11185,4 -2.79173,-7.90519 c -2.57124,-7.28085 -9.32688,-18.54596 -11.57041,-19.29381 -0.52231,-0.1741 -1.48591,3.05383 -2.14132,7.17319 -1.28644,8.08538 -2.72277,11.54346 -6.81427,16.40593 -2.98867,3.55183 -6.44742,4.18426 -6.44742,1.1789 0,-5.50269 -4.02682,-2.25869 -20.77023,16.73245 -4.23389,4.80228 -5.27,6.5683 -4.37731,7.46099 0.81948,0.81948 11.56698,1.37892 35.90853,1.86913 63.81393,1.28514 141.70499,8.84422 164.92511,16.00546 7.6316,2.35363 12.3139,5.23202 12.3139,7.56981 0,0.85837 -3.825,5.46951 -8.5,10.24698 -4.675,4.77746 -8.5,8.9041 -8.5,9.1703 0,0.26621 -1.82228,2.5037 -4.0495,4.97221 -10.7224,11.88398 -26.32713,36.51781 -33.86735,53.46346 -5.31865,11.95297 -10.72765,27.37483 -11.67146,33.27705 l -0.59871,3.74413 11.84351,3.69982 c 6.51393,2.03489 12.47813,4.11505 13.25378,4.62257 1.19941,0.78479 1.23638,3.66507 0.24721,19.26469 -1.3502,21.29326 -1.52066,41.66254 -0.33718,40.29193 0.45116,-0.5225 2.10367,-4.1 3.67225,-7.95 7.57214,-18.58549 23.79637,-48.724 29.68031,-55.13483 1.95594,-2.13109 1.95444,-2.13831 -0.85674,-4.12449 -3.59638,-2.54094 -15.41085,-8.41874 -21.56612,-10.72933 -2.6125,-0.98068 -4.75,-2.11457 -4.75,-2.51975 0,-1.10013 8.94105,-12.09241 19.84047,-24.39222 10.56885,-11.92678 29.97372,-30.03518 36.82069,-34.36065 2.3844,-1.5063 4.33607,-3.03221 4.33705,-3.3909 9.9e-4,-0.3587 -1.23571,-1.0923 -2.74821,-1.63022 -5.93659,-2.11135 -38.29616,-16.50479 -37.92986,-16.87108 0.41118,-0.41118 47.90419,15.12 50.24998,16.43277 0.96446,0.53974 -1.65454,3.01086 -8.85015,8.35043 -5.62098,4.17111 -14.59044,11.47745 -19.93213,16.23631 -14.61992,13.02474 -39.89378,37.81614 -39.56318,38.80795 0.16005,0.48014 5.39574,3.09392 11.63487,5.80838 6.23913,2.71447 12.87695,6.10473 14.75072,7.53392 l 3.40684,2.59853 -2.83376,4.19259 c -1.55857,2.30592 -6.12026,10.49259 -10.13711,18.19259 -4.01684,7.7 -11.32105,21.33732 -16.23158,30.30515 l -8.92823,16.30515 4.14304,12.19485 c 5.73122,16.8696 10.91585,37.57962 10.99144,43.90532 0.0348,2.90924 -0.22284,14.06453 -0.57244,24.78953 -0.57805,17.73345 -0.44733,20.23449 1.4429,27.60764 2.00388,7.81643 10.85455,36.10695 11.77639,37.64236 0.24766,0.4125 23.82374,0.75 52.39128,0.75 H 670 Z M 647.07087,443.5 c 0,-0.55 0.64311,-2.125 1.42913,-3.5 0.78602,-1.375 1.42913,-2.05 1.42913,-1.5 0,0.55 -0.64311,2.125 -1.42913,3.5 -0.78602,1.375 -1.42913,2.05 -1.42913,1.5 z m -2.84836,-7.0567 C 643.00013,435.58711 642,434.3761 642,433.75217 c 0,-0.62394 0.5625,-0.42937 1.25,0.43238 0.6875,0.86174 2.15,2.05906 3.25,2.66072 1.1,0.60165 1.53763,1.1076 0.97251,1.12432 -0.56513,0.0167 -2.02763,-0.67011 -3.25,-1.52629 z M 630.02883,409 c 0.0173,-1.65845 3.91732,-7.0994 3.94234,-5.5 0.009,0.55 -0.87842,2.35 -1.97117,4 -1.09275,1.65 -1.97978,2.325 -1.97117,1.5 z M 533,385.55352 c 0,-1.97861 6.31745,-10.11852 12.90586,-16.62897 4.36214,-4.31052 8.9314,-9.992 10.60181,-13.18244 l 2.93564,-5.607 -3.38066,-4.31755 -3.38066,-4.31756 3.9479,3.74681 c 3.77652,3.58416 4.02758,3.67098 5.78316,2 1.76091,-1.67605 1.81063,-1.64114 1.22755,0.86173 -0.33423,1.4347 -1.07392,5.89586 -1.64375,9.91369 -1.32502,9.34256 -3.6096,12.93138 -11.28975,17.73484 C 541.42527,381.56228 533,386.22356 533,385.55352 Z M 568.07029,372.75 c 0.0589,-2.72353 0.2095,-2.92602 0.92971,-1.25 1.18717,2.7627 1.18717,4.5 0,4.5 -0.55,0 -0.96837,-1.4625 -0.92971,-3.25 z m -33.00045,466.60383 c -3.20316,-17.75943 -3.21007,-55.44756 -0.0165,-89.77339 0.80718,-8.67585 0.75197,-11.09102 -0.26872,-11.75396 -0.70656,-0.45891 -6.56206,-2.52011 -13.0122,-4.58043 -9.80007,-3.13037 -11.72912,-4.07476 -11.73713,-5.74605 -0.0212,-4.41944 9.18997,-28.9764 15.8723,-42.31562 11.19122,-22.33982 25.90763,-43.17057 44.78073,-63.38613 4.58906,-4.9155 8.081,-9.36242 7.75985,-9.88205 -0.32115,-0.51963 -2.35078,-1.84617 -4.51029,-2.94787 -15.81411,-8.06776 -81.38594,-14.3597 -166.43792,-15.97056 -46.34978,-0.87785 -44.41295,-0.69074 -66.87822,-6.46067 -11.68199,-3.00037 -21.8494,-3.2661 -40.58145,-1.06062 -6.89718,0.81206 -23.54266,2.62689 -36.98994,4.03295 -13.44729,1.40605 -24.62964,2.73649 -24.84967,2.95651 -0.5641,0.5641 1.12801,5.89491 7.08793,22.32986 l 5.18419,14.29581 14.01358,8.17189 c 16.30773,9.50971 36.07061,21.71986 67.4296,41.66018 27.72125,17.62719 55.7659,34.21483 80.04903,47.34681 24.45211,13.22337 33.80998,19.687 56.28041,38.87378 7.87179,6.72147 4.32394,1.51471 -9.04523,-13.27461 -7.64158,-8.45331 -23.30023,-24.59091 -34.79701,-35.86133 -21.59124,-21.16615 -18.57066,-19.37899 6.09156,3.60413 17.35839,16.17655 37.88532,37.56766 44.99336,46.88754 2.93629,3.85 10.36183,15.31572 16.50119,25.47938 6.13936,10.16366 13.09891,21.18866 15.46566,24.5 4.29382,6.00753 27.48229,29.91668 28.26032,29.13864 0.2257,-0.22569 -0.0648,-3.04458 -0.64547,-6.26419 z M 435,472.62166 c 0,-0.78068 -20.27645,-10.67854 -20.80105,-10.15395 -1.33403,1.33404 1.42611,8.04567 3.80105,9.24272 2.19617,1.10695 17,1.90046 17,0.91123 z m 214.30438,-15.02168 c 7.15646,-3.09962 7.87679,-4.36307 5.72068,-10.03406 l -0.97493,-2.56428 -4.47776,2.17546 c -3.58669,1.74255 -4.88516,3.12251 -6.52506,6.93456 -2.16003,5.02112 -2.57669,7.27438 -1.24293,6.72167 0.44241,-0.18333 3.81741,-1.63834 7.5,-3.23335 z m 46.53158,-21.22013 c 0.38262,-0.48392 0.46356,-3.17596 0.17986,-5.98232 l -0.51582,-5.10247 -19.5,9.22509 -19.5,9.22509 0.24432,3.87738 c 0.13437,2.13256 0.44186,4.39848 0.68331,5.03538 0.42632,1.12457 36.85619,-14.31506 38.40833,-16.27815 z M 477.51571,368.92849 c 0.37103,-1.68932 0.51929,-3.21037 0.32945,-3.3801 C 477.01749,364.8084 465,364.45061 465,365.16596 c 0,0.78088 9.86245,6.80635 11.17054,6.82466 0.3688,0.005 0.97413,-1.3728 1.34517,-3.06213 z m 5.15992,-14.22488 c 3.71828,-7.54029 11.55027,-17.62894 27.48774,-35.40789 C 516.67352,312.03336 522,305.84586 522,305.54572 522,305.24557 520.51954,305 518.7101,305 c -2.98367,0 -11.87877,-1.95219 -15.76028,-3.45889 -1.33419,-0.51789 -1.5432,0.69139 -1.5,8.67858 0.0441,8.16383 -0.29424,10.02587 -2.81266,15.47744 -2.57537,5.57486 -6.13941,10.29036 -6.96361,9.21341 -0.1728,-0.2258 -1.0389,-3.85474 -1.92467,-8.06431 C 488.02135,318.63621 484.31074,309 482.87686,309 482.39459,309 482,312.18707 482,316.08239 c 0,5.8146 -0.57414,8.36543 -3.20738,14.25 -2.84032,6.3473 -3.20766,8.19763 -3.20975,16.16761 -0.002,8.4398 1.32591,14.5 3.17775,14.5 0.44556,0 2.20732,-2.83338 3.91501,-6.29639 z M 311.39301,146.41821 C 312.27345,144.12382 312.20213,144 310,144 c -1.1,0 -2,0.1882 -2,0.41821 0,1.21975 1.31892,3.58179 2,3.58179 0.43231,0 1.05917,-0.7118 1.39301,-1.58179 z M 47.494452,533.99387 c -0.998538,-1.10337 -1.630783,-2.14912 -1.404988,-2.32389 0.225795,-0.17477 3.638455,-2.43358 7.583689,-5.01958 3.945233,-2.586 9.436098,-7.17784 12.201921,-10.20409 C 70.568429,511.31103 79,496.49573 79,493.3842 79,492.28611 76.640617,492 67.585169,492 H 56.170337 l -3.584429,4.88297 c -1.971436,2.68563 -5.427961,6.54849 -7.681168,8.58413 l -4.096739,3.70115 -2.311452,-2.17149 -2.311453,-2.1715 5.973162,-6.06662 C 47.847183,492.9807 57,479.06365 57,476.19145 c 0,-0.9998 0.843709,-1.1694 3.25,-0.65331 4.843492,1.03882 4.921315,1.23022 2.232224,5.49002 C 61.117001,483.19081 60,485.1942 60,485.48013 60,485.76606 65.538992,486 72.30887,486 c 8.85133,0 12.835827,0.38532 14.18484,1.37174 1.823512,1.33339 1.825183,1.50816 0.05977,6.25 -6.097399,16.37741 -17.733324,31.6979 -29.506312,38.84961 -6.771626,4.11354 -7.152878,4.17431 -9.552714,1.52252 z M 63,434.5 c 0,-9.625 -0.216262,-17.5 -0.480583,-17.5 -0.26432,0 -2.85182,1.50299 -5.75,3.33997 -9.801684,6.21271 -18.718266,10.80968 -19.741064,10.17755 -0.559679,-0.3459 -1.488127,-1.5081 -2.063217,-2.58266 -0.885316,-1.65423 -0.631462,-2.11122 1.655825,-2.98085 8.888671,-3.37947 31.507831,-18.83069 42.283516,-28.88401 l 5.404477,-5.04217 3.522574,2.17707 c 2.347141,1.45061 3.046387,2.33095 2.095523,2.63822 -0.784878,0.25364 -3.809841,2.6281 -6.722139,5.27657 -2.912299,2.64848 -7.06775,6.06752 -9.234337,7.59787 -2.166586,1.53034 -3.74095,3.33053 -3.498585,4.00041 0.242364,0.66989 0.01031,1.48395 -0.515664,1.80902 C 69.403831,414.86845 69,422.90517 69,433.55902 V 452 h -3 -3 z m 658.07895,-12.08333 c 0.048,-1.16495 0.28494,-1.4019 0.60416,-0.60417 0.28887,0.72187 0.25335,1.58438 -0.0789,1.91667 -0.33229,0.33229 -0.56864,-0.25834 -0.52522,-1.3125 z M 32.221799,360.76302 c -1.25301,-0.6016 -2.15017,-1.35689 -1.993688,-1.67842 0.156482,-0.32153 2.403579,-4.8596 4.993549,-10.0846 4.215594,-8.50453 9.773076,-26.84695 9.777045,-32.26905 10e-4,-1.40913 0.560803,-1.64646 2.751295,-1.16648 5.154697,1.12949 5.391841,1.30002 4.409253,3.17069 C 51.649406,319.70582 50.908437,322.525 50.512656,325 48.562063,337.19793 38.89491,360.77239 35.5,361.61008 c -0.55,0.13572 -2.02519,-0.24546 -3.278201,-0.84706 z m 54.271702,-0.013 c -0.244051,-0.6875 -1.85193,-5.3 -3.573063,-10.25 -1.721134,-4.95 -5.361618,-13.95 -8.089965,-20 -2.728348,-6.05 -5.183911,-11.50887 -5.456808,-12.13082 -0.272897,-0.62195 0.88543,-1.61245 2.57406,-2.20111 2.703763,-0.94254 3.239686,-0.80756 4.489856,1.13082 C 79.791014,322.49836 93,355.19454 93,358.29582 c 0,0.76073 -1.146174,1.90538 -2.547053,2.54366 -3.183535,1.45052 -3.414625,1.4453 -3.959446,-0.0895 z m -1.227426,-43.8473 C 82.840403,316.00541 80,312.23496 80,309.91235 c 0,-0.90345 0.932661,-2.82832 2.07258,-4.27749 C 86.147091,300.45496 95,303.2919 95,309.77749 c 0,5.47587 -4.76456,8.96352 -9.733925,7.12523 z m 5.511419,-2.45942 c 4.79927,-3.36154 0.828382,-11.72254 -4.729592,-9.9585 -4.581531,1.45412 -5.11511,8.7459 -0.767985,10.49511 3.026718,1.21789 2.987153,1.22175 5.497577,-0.53661 z M 34.635259,277.88698 c -0.995072,-1.16216 -1.432581,-2.41495 -0.972241,-2.78398 0.46034,-0.36903 3.432775,-2.40369 6.605411,-4.52145 7.97252,-5.32174 20.679637,-19.03915 26.701638,-28.82457 C 69.73653,237.26163 72,233.2273 72,232.79181 72,232.35631 64.575,232 55.5,232 H 39 v -2.95818 -2.95819 l 19.058466,-0.29181 c 13.78138,-0.21102 19.716053,0.0535 21.433373,0.95521 l 2.374905,1.24702 -4.058537,7.75298 c -2.232195,4.26413 -5.352212,9.63405 -6.933372,11.93315 C 69.293676,249.97927 68,252.17254 68,252.5541 c 0,0.38157 2.1375,2.53958 4.75,4.79558 2.6125,2.256 8.016161,7.22983 12.008136,11.05296 l 7.258136,6.95114 -2.18245,2.32311 c -1.200348,1.27771 -2.441509,2.32123 -2.758136,2.31893 -0.316627,-0.002 -5.658429,-4.99489 -11.870671,-11.09464 l -11.294984,-11.09044 -8.205016,7.87569 C 47.90076,273.17745 39.124247,280 37.292066,280 c -0.466172,0 -1.661734,-0.95086 -2.656807,-2.11302 z"
         id="path841" />
    </g>
  </g>
</svg>
